HIERARCHY
ROOT Hips
{
	OFFSET 0.000000 0.000000 0.000000
	CHANNELS 6 Xposition Yposition Zposition Zrotation Yrotation Xrotation 
	JOINT LHipJoint
	{
		OFFSET 0.000000 0.000000 0.000000
		CHANNELS 3 Zrotation Yrotation Xrotation
		JOINT LeftUpLeg
		{
			OFFSET 1.363060 -1.794630 0.839290
			CHANNELS 3 Zrotation Yrotation Xrotation
			JOINT LeftLeg
			{
				OFFSET 2.448110 -6.726130 0.000000
				CHANNELS 3 Zrotation Yrotation Xrotation
				JOINT LeftFoot
				{
					OFFSET 2.562200 -7.039590 0.000000
					CHANNELS 3 Zrotation Yrotation Xrotation
					JOINT LeftToeBase
					{
						OFFSET 0.157640 -0.433110 2.322550
						CHANNELS 3 Zrotation Yrotation Xrotation
						End Site
						{
							OFFSET 0.000000 0.000000 0.000000
						}
					}
				}
			}
		}
	}
	JOINT RHipJoint
	{
		OFFSET 0.000000 0.000000 0.000000
		CHANNELS 3 Zrotation Yrotation Xrotation
		JOINT RightUpLeg
		{
			OFFSET -1.305520 -1.794630 0.839290
			CHANNELS 3 Zrotation Yrotation Xrotation
			JOINT RightLeg
			{
				OFFSET -2.542530 -6.985550 0.000000
				CHANNELS 3 Zrotation Yrotation Xrotation
				JOINT RightFoot
				{
					OFFSET -2.568260 -7.056230 0.000000
					CHANNELS 3 Zrotation Yrotation Xrotation
					JOINT RightToeBase
					{
						OFFSET -0.164730 -0.452590 2.363150
						CHANNELS 3 Zrotation Yrotation Xrotation
						End Site
						{
							OFFSET 0.000000 0.000000 0.000000
						}
					}
				}
			}
		}
	}
	JOINT LowerBack
	{
		OFFSET 0.000000 0.000000 0.000000
		CHANNELS 3 Zrotation Yrotation Xrotation
		JOINT Spine
		{
			OFFSET 0.028270 2.035590 -0.193380
			CHANNELS 3 Zrotation Yrotation Xrotation
			JOINT Spine1
			{
				OFFSET 0.056720 2.048850 -0.042750
				CHANNELS 3 Zrotation Yrotation Xrotation
				JOINT Neck
				{
					OFFSET 0.000000 0.000000 0.000000
					CHANNELS 3 Zrotation Yrotation Xrotation
					JOINT Neck1
					{
						OFFSET -0.054170 1.746240 0.172020
						CHANNELS 3 Zrotation Yrotation Xrotation
						JOINT Head
						{
							OFFSET 0.104070 1.761360 -0.123970
							CHANNELS 3 Zrotation Yrotation Xrotation
							End Site
							{
								OFFSET 0.000000 0.000000 0.000000
							}
						}
					}
				}
				JOINT LeftShoulder
				{
					OFFSET 0.000000 0.000000 0.000000
					CHANNELS 3 Zrotation Yrotation Xrotation
					JOINT LeftArm
					{
						OFFSET 3.362410 1.200890 -0.311210
						CHANNELS 3 Zrotation Yrotation Xrotation
						JOINT LeftForeArm
						{
							OFFSET 4.983000 -0.000000 -0.000000
							CHANNELS 3 Zrotation Yrotation Xrotation
							JOINT LeftHand
							{
								OFFSET 3.483560 -0.000000 -0.000000
								CHANNELS 3 Zrotation Yrotation Xrotation
								JOINT LeftFingerBase
								{
									OFFSET 0.000000 0.000000 0.000000
									CHANNELS 3 Zrotation Yrotation Xrotation
									JOINT LeftHandIndex1
									{
										OFFSET 0.715260 -0.000000 -0.000000
										CHANNELS 3 Zrotation Yrotation Xrotation
										End Site
										{
											OFFSET 0.000000 0.000000 0.000000
										}
									}
								}
								JOINT LThumb
								{
									OFFSET 0.000000 0.000000 0.000000
									CHANNELS 3 Zrotation Yrotation Xrotation
									End Site
									{
										OFFSET 0.000000 0.000000 0.000000
									}
								}
							}
						}
					}
				}
				JOINT RightShoulder
				{
					OFFSET 0.000000 0.000000 0.000000
					CHANNELS 3 Zrotation Yrotation Xrotation
					JOINT RightArm
					{
						OFFSET -3.136600 1.374050 -0.404650
						CHANNELS 3 Zrotation Yrotation Xrotation
						JOINT RightForeArm
						{
							OFFSET -5.241900 -0.000000 -0.000000
							CHANNELS 3 Zrotation Yrotation Xrotation
							JOINT RightHand
							{
								OFFSET -3.444170 -0.000000 -0.000000
								CHANNELS 3 Zrotation Yrotation Xrotation
								JOINT RightFingerBase
								{
									OFFSET 0.000000 0.000000 0.000000
									CHANNELS 3 Zrotation Yrotation Xrotation
									JOINT RightHandIndex1
									{
										OFFSET -0.622530 -0.000000 -0.000000
										CHANNELS 3 Zrotation Yrotation Xrotation
										End Site
										{
											OFFSET 0.000000 0.000000 0.000000
										}
									}
								}
								JOINT RThumb
								{
									OFFSET 0.000000 0.000000 0.000000
									CHANNELS 3 Zrotation Yrotation Xrotation
									End Site
									{
										OFFSET 0.000000 0.000000 0.000000
									}
								}
							}
						}
					}
				}
			}
		}
	}
}
MOTION
Frames: 12
Frame Time: 0.016667
-0.348301 16.990496 -0.348301 0.316240 -7.183439 4.837727 -8.698812 8.197597 -6.718538 16.166847 -26.263546 -24.243458 101.904383 -76.138164 -64.586666 -118.573590 -58.574191 71.377620 0.000000 0.000000 0.000000 19.273085 -8.460854 -1.784717 3.268938 13.371870 -18.268827 56.201001 6.725803 -52.448489 20.871169 -80.425026 9.278037 0.000000 0.000000 0.000000 -9.689813 2.601305 14.744049 9.220995 1.773690 -1.989688 0.612330 2.785190 -6.554568 8.096391 -1.561578 -11.792499 -5.232097 -0.357255 8.915589 0.000000 0.000000 0.000000 -0.179154 11.978972 11.975065 -73.975454 1.181484 16.302937 -3.755907 -77.498784 0.601072 1.551117 -11.005118 0.299525 1.544021 -11.010751 0.000000 0.000000 0.000000 0.000000 0.000000 0.000000 0.000000 -7.305383 -9.521692 10.482718 67.307404 5.848740 15.608731 25.765546 67.145859 0.032951 -0.697767 3.054689 0.016392 -0.700314 3.054857 0.000000 0.000000 0.000000 0.000000 0.000000 0.000000 0.000000 
-0.352136 17.010881 -0.204172 1.277079 -8.274969 7.086373 -4.634737 10.050360 -3.924605 25.629358 -31.335143 -22.254110 111.733613 -69.023566 -71.548976 -118.641967 -78.055737 78.312154 0.000000 0.000000 0.000000 17.235876 -7.914960 -4.255494 6.920055 12.772842 -17.325228 56.128882 5.955384 -50.272407 15.407838 -78.991660 11.639142 0.000000 0.000000 0.000000 -9.960736 3.880147 13.999923 8.056086 2.738791 -1.341387 1.745130 3.696127 -8.085091 5.091866 -1.040047 -10.159216 -1.795878 -0.277106 3.340786 0.000000 0.000000 0.000000 -0.540820 12.451635 10.240852 -72.652664 -4.136993 5.776332 -169.567717 -86.107886 -179.085815 -22.704917 18.809232 0.380381 -23.048900 18.353063 -0.000000 0.000000 0.000000 0.000000 0.000000 0.000000 0.000000 -2.332510 -8.427321 10.409703 62.896070 0.031859 19.391031 -1.656804 81.049938 1.361932 -5.761323 28.044142 0.616179 -6.079378 27.986121 0.000000 0.000000 0.000000 0.000000 0.000000 0.000000 0.000000 
-0.353646 17.033086 -0.060710 -5.053123 10.631536 3.768098 -19.983931 15.926056 -12.337064 -2.118113 -12.587862 -26.554596 45.908303 -55.491756 -56.782928 -118.369402 -65.078253 60.717678 0.000000 0.000000 0.000000 15.825472 -15.949039 -4.508382 14.809012 8.012140 -18.391772 50.499482 6.289201 -52.449775 -3.613597 -76.402146 25.249205 0.000000 0.000000 0.000000 -1.532217 -1.962654 16.145737 10.876455 -0.638253 -0.108106 0.003218 0.489367 -9.087876 3.880283 -0.753494 -9.503004 1.482861 0.205058 -1.840693 0.000000 0.000000 0.000000 0.969771 10.333891 -8.315076 -69.057340 -29.994107 -6.160230 54.798965 -80.050307 -0.632036 -12.153701 -0.208101 -0.316517 -12.163956 -0.196937 -0.000000 0.000000 0.000000 0.000000 0.000000 0.000000 0.000000 -4.444913 -2.124927 16.425323 70.328321 -5.388675 2.191278 153.721920 84.636668 178.860459 -19.425193 30.733465 -1.053881 -21.314525 29.746177 -0.000000 0.000000 0.000000 0.000000 0.000000 0.000000 0.000000 
-0.268254 17.117438 0.167227 -0.416136 -1.645502 7.041043 -6.144725 11.791599 -3.375689 21.846106 -27.877045 -18.393763 94.467454 -64.287949 -57.167527 -149.163918 -30.012595 95.330070 0.000000 0.000000 0.000000 10.742791 -19.990714 -7.343834 25.249933 11.047874 -16.968889 52.744603 -0.042143 -39.331710 -6.471037 -68.863541 21.701421 0.000000 0.000000 0.000000 -4.777067 1.544939 11.942466 7.682231 1.537957 4.061056 -2.235750 3.224581 -11.389289 3.700221 -0.047184 -7.973465 3.237682 0.745751 -6.557592 0.000000 0.000000 0.000000 -1.929799 10.522486 -17.948700 -57.001598 -39.763335 5.929213 41.194351 -56.268739 -0.649850 -10.274532 1.500647 -0.325290 -10.291289 1.506717 -0.000000 0.000000 0.000000 0.000000 0.000000 0.000000 0.000000 -2.855836 1.299633 18.923387 72.046350 -4.531557 -4.383042 148.742613 76.249397 178.611064 -19.419269 26.519720 -1.176808 -20.993819 25.661988 0.000000 0.000000 0.000000 0.000000 0.000000 0.000000 0.000000 
-0.180955 17.203133 0.394595 -2.364084 -7.606039 4.922151 -8.495515 6.748202 2.242577 19.519782 -27.352370 -27.272169 79.001452 -49.029484 -43.792801 80.413719 -75.583382 -88.552842 0.000000 0.000000 0.000000 8.706228 -26.363681 -8.513153 37.501150 8.677342 -13.870176 49.429582 -8.583525 -25.988525 -5.640502 -57.454646 13.431831 0.000000 0.000000 0.000000 -2.580288 2.483176 9.029171 4.854991 2.046957 8.401937 -2.675898 3.395666 -11.106828 4.650002 1.854407 -4.488306 6.672579 2.247243 -15.752578 0.000000 0.000000 0.000000 -4.728192 3.917446 -28.097465 -35.707842 -46.683200 5.530769 25.877821 -35.217488 -0.866018 -8.620238 2.634774 -0.434207 -8.655907 2.631710 -0.000000 0.000000 0.000000 0.000000 0.000000 0.000000 0.000000 -0.951762 6.577852 21.633437 72.596035 -2.174526 -12.863423 147.611310 68.011445 178.693919 -17.508258 22.869985 -1.180382 -18.815620 22.127924 0.000000 0.000000 0.000000 0.000000 0.000000 0.000000 0.000000 
-0.095230 17.286856 0.617624 -3.825667 -0.530853 -0.818416 -14.823203 31.778891 -8.558855 -9.698998 2.288097 -24.199860 -8.727774 -29.387542 -76.854220 -35.641922 24.193568 133.735549 0.000000 0.000000 0.000000 5.719117 -46.740198 -5.980728 52.816194 -0.145373 -12.615058 32.117463 -19.639100 -6.324016 1.102866 -37.228644 -0.022618 0.000000 0.000000 0.000000 1.669343 0.799820 13.956495 0.086929 -0.491956 7.183415 1.365003 -1.097767 -5.546724 4.579929 5.393981 0.161885 11.521558 5.737441 -31.666418 0.000000 0.000000 0.000000 -2.259411 -10.375075 -35.410788 -10.483166 -40.898591 1.086127 17.128353 -21.604849 -1.044435 -6.161943 1.895727 -0.525200 -6.221641 1.882594 -0.000000 0.000000 0.000000 0.000000 0.000000 0.000000 0.000000 -0.799072 11.039540 23.249056 72.205889 0.839503 -21.242034 149.052110 61.664669 178.946714 -15.983503 20.741553 -0.978966 -16.904330 20.140032 0.000000 0.000000 0.000000 0.000000 0.000000 0.000000 0.000000 
-0.008146 17.370706 0.839423 -1.255330 -13.425376 -3.424116 -17.896849 17.402684 2.923244 1.121293 -30.584688 -22.126092 -92.139032 4.831196 -20.753004 136.839184 87.431249 79.449343 0.000000 0.000000 0.000000 5.778767 -49.083216 -11.165313 62.884810 -8.388505 -5.819015 1.808213 -18.140511 9.255364 7.137692 -17.820342 -4.547204 0.000000 0.000000 0.000000 -0.533725 8.489664 22.776013 -7.495307 3.083710 3.641256 8.857235 -2.024497 -2.252159 5.887463 9.445832 -1.981313 12.407610 8.261561 -40.139896 0.000000 0.000000 0.000000 2.892813 -20.106499 -37.074466 6.509421 -29.843201 -3.372747 10.904992 -13.734472 -1.057586 -4.497726 1.040000 -0.533239 -4.572788 1.022468 -0.000000 0.000000 0.000000 0.000000 0.000000 0.000000 0.000000 -2.256061 11.451292 22.652807 70.389096 3.938496 -25.574186 151.295920 56.679788 178.684408 -15.413252 18.972831 -0.931300 -15.987439 18.595034 -0.000000 0.000000 0.000000 0.000000 0.000000 0.000000 0.000000 
0.027475 17.416668 1.006549 -0.104354 -1.282925 -3.970837 -17.395034 27.861309 1.534840 -10.497679 -21.715849 -21.854844 -112.537469 -3.209693 -26.974334 146.271820 72.585126 47.109340 0.000000 0.000000 0.000000 6.473975 -55.354690 -14.589460 65.847012 -5.239101 -9.536419 -10.895243 -15.400731 13.438781 8.674855 -13.994400 -6.532140 0.000000 0.000000 0.000000 -0.539814 6.580361 23.857482 -6.706536 -0.052901 2.352756 12.059896 -6.984410 -3.148584 5.647012 10.583586 -4.526494 10.622987 8.125922 -41.610465 0.000000 0.000000 0.000000 6.296991 -26.997846 -38.193724 8.705792 -26.448302 -9.438253 10.027563 -2.147711 -1.023228 -3.906573 0.948028 -0.516335 -3.983270 0.928126 -0.000000 0.000000 0.000000 0.000000 0.000000 0.000000 0.000000 -3.681334 8.714650 21.993779 70.524504 3.688735 -26.837570 153.075124 55.735589 177.846333 -15.505352 17.998951 -1.302606 -16.255317 17.498742 -0.000000 0.000000 0.000000 0.000000 0.000000 0.000000 0.000000 
0.062932 17.461440 1.170997 2.224078 -4.380640 -7.569960 -18.854304 12.293663 5.346537 4.992280 -34.077080 -25.373848 -76.824136 4.865175 -51.725253 125.792583 62.994578 44.003657 0.000000 0.000000 0.000000 6.925294 -52.009739 -14.081392 64.923071 3.025005 -8.238357 -21.964945 -12.026609 20.784074 11.946075 -14.593963 -8.290283 0.000000 0.000000 0.000000 0.227954 9.800726 27.855597 -6.857157 1.677972 2.856310 11.070135 -7.741619 -2.989457 2.609309 10.981699 -4.634016 8.081316 7.743713 -45.831256 0.000000 0.000000 0.000000 8.007458 -30.913001 -40.627073 7.805366 -26.556856 -16.126564 7.286558 15.630192 -1.041512 -4.682905 0.849744 -0.525069 -4.759997 0.837161 -0.000000 0.000000 0.000000 0.000000 0.000000 0.000000 0.000000 -5.066221 7.030164 20.897219 74.124165 4.193293 -27.339658 155.288780 55.087396 176.103582 -15.730812 17.756842 -2.171358 -17.216980 16.702541 -0.000000 0.000000 0.000000 0.000000 0.000000 0.000000 0.000000 
0.091950 17.500652 1.326981 -1.566902 11.463459 -12.123703 -29.815963 30.173089 -10.831376 -9.379523 9.241472 -32.307997 -106.642868 61.025936 -61.709533 109.638590 13.781962 -36.925893 0.000000 0.000000 0.000000 6.030558 -59.628873 -9.314640 61.769266 13.289589 -12.961015 -26.338955 -11.449456 29.591725 15.192643 -18.222188 -12.303244 0.000000 0.000000 0.000000 8.229354 4.079375 30.762659 -4.096398 -0.822778 4.455000 8.459612 -13.161204 -0.869886 -0.216212 9.895730 -7.511884 4.902133 6.342219 -50.652694 0.000000 0.000000 0.000000 6.501497 -34.426119 -37.225002 11.030613 -26.231878 -12.123719 5.511859 26.496661 -1.305647 -6.538886 -0.534745 -0.657645 -6.627757 -0.537986 -0.000000 0.000000 0.000000 0.000000 0.000000 0.000000 0.000000 -5.598952 1.902657 17.070698 77.971064 5.824032 -27.545576 158.171474 54.758698 173.559948 -15.650056 18.324604 -3.473556 -18.450517 16.402007 0.000000 0.000000 0.000000 0.000000 0.000000 0.000000 0.000000 
0.124633 17.541903 1.485120 -5.579255 25.699518 -14.722305 -39.065286 46.814488 -23.869114 -30.111021 42.213774 -28.423446 -101.994513 87.285689 -73.343576 4.628812 43.166053 -44.995468 0.000000 0.000000 0.000000 5.925283 -60.441177 -6.689365 53.697570 23.353994 -22.475876 -26.837321 -13.033445 39.865034 18.278330 -23.850447 -16.428128 0.000000 0.000000 0.000000 14.899457 -0.517636 30.249556 -1.134531 -2.541396 6.183131 3.604340 -17.837386 2.921519 -1.917240 8.971023 -13.371449 1.109420 4.488874 -55.062244 0.000000 0.000000 0.000000 -1.612644 -38.412796 -31.928353 22.249530 -22.077323 3.242152 2.784377 33.000901 -2.237505 -10.543866 -3.918443 -1.128821 -10.661354 -3.917460 -0.000000 0.000000 0.000000 0.000000 0.000000 0.000000 0.000000 -2.771202 -4.840500 10.951767 81.421343 7.528814 -26.368552 160.319437 55.236323 170.664341 -15.381399 19.945480 -4.938205 -19.870727 17.048422 0.000000 0.000000 0.000000 0.000000 0.000000 0.000000 0.000000 
0.138126 17.568384 1.621495 -5.049461 25.863939 -13.951134 -37.670463 45.064150 -21.089464 -27.473303 39.707928 -27.131155 -102.761162 81.475410 -72.596874 -0.622122 44.781187 -37.291556 0.000000 0.000000 0.000000 5.741728 -59.082056 -7.024421 52.024228 25.445981 -23.678352 -26.119340 -13.208399 42.751088 19.308449 -24.555133 -18.390551 0.000000 0.000000 0.000000 14.359685 -0.227792 29.719098 -1.194526 -2.617789 5.869907 3.844030 -18.122950 2.805433 -2.072834 8.877864 -13.230581 0.987648 4.398852 -55.146259 0.000000 0.000000 0.000000 -1.037523 -38.600543 -32.430800 21.512741 -22.064848 2.161754 3.355403 33.352646 -2.184824 -10.466981 -3.678038 -1.101985 -10.582271 -3.677191 -0.000000 0.000000 0.000000 0.000000 0.000000 0.000000 0.000000 -3.086983 -4.847254 11.178450 81.639965 7.259651 -26.619321 160.435135 55.150589 170.809434 -15.329319 19.597791 -4.868000 -19.713215 16.749919 0.000000 0.000000 0.000000 0.000000 0.000000 0.000000 0.000000 
